PathFileType	4	(X/Y/Z)	C:\Users\WrightLab\Desktop\Jo\P5V41.trc
DataRate	CameraRate	NumFrames	NumMarkers	Units	OrigDataRate	OrigDataStartFrame	OrigNumFrames
100.00	100.00	      20	19	mm	100.00	998	      1140
Frame#	Time	Headset_Front			Headset_Back			Headset_Left			Headset_Right			Left_Shoulder			Right_Shoulder			Sternum			C7			Left Elbow			Right Elbow			Left Wrist			Right Wrist			Left ASIS			Right ASIS			S2			Left Knee			Right Knee			Left Ankle			Right Ankle			
		X1	Y1	Z1	X2	Y2	Z2	X3	Y3	Z3	X4	Y4	Z4	X5	Y5	Z5	X6	Y6	Z6	X7	Y7	Z7	X8	Y8	Z8	X9	Y9	Z9	X10	Y10	Z10	X11	Y11	Z11	X12	Y12	Z12	X13	Y13	Z13	X14	Y14	Z14	X15	Y15	Z15	X16	Y16	Z16	X17	Y17	Z17	X18	Y18	Z18	X19	Y19	Z19	

998	9.970	-364.87195	1554.07861	1123.98877	-493.37778	1209.87561	825.94885							-469.41095	1524.71423	897.74957	-131.93860	1492.32349	1117.58252	-242.44664	1345.66443	954.82916	-273.25223	1782.31921	969.29865				-55.82083	1212.46936	1137.71948	-332.46286	1028.78796	790.00946	-16.18364	1173.95239	909.32422	-331.88187	951.01630	865.23157	-125.36209	977.93604	1063.08118	-429.86392	996.43219	1142.11963	-347.88095	531.62384	836.34021	-77.95689	542.58765	1103.13745	-390.71765	111.91945	930.52478	-94.29681	140.62576	1237.99902	
999	9.980	-359.55106	1553.68164	1128.73315	-495.62784	1211.89417	831.00183							-468.96576	1524.31970	904.82074	-125.89704	1491.39160	1116.55310	-241.10391	1344.90942	956.75067	-270.13138	1781.27258	970.75385				-50.33460	1212.05786	1134.70374	-329.53549	1034.12207	792.60321	-16.24910	1174.72949	904.75909	-330.78589	950.50354	869.48328	-121.68446	977.42035	1062.48132	-424.82501	996.58331	1147.63623	-348.41940	531.52411	840.32019	-79.28310	537.84479	1104.09387	-390.65881	111.97273	930.53003	-89.89565	139.23976	1241.25696	
1000	9.990	-353.90625	1553.38538	1133.50378	-496.36121	1212.94165	836.14246							-469.21152	1523.70386	912.25104	-120.38547	1490.99377	1116.59485	-239.76028	1343.62500	959.49451	-267.13477	1780.47131	972.09625				-44.96504	1211.25574	1130.71240	-326.84668	1040.89905	793.69116	-16.86796	1175.62708	900.96643	-331.56290	948.64819	871.81921	-117.70148	976.43964	1062.57727	-419.69406	996.59839	1153.58618	-348.56195	531.67920	845.03662	-80.47888	533.22186	1105.57520	-390.57806	112.01289	930.57312	-88.43308	137.99864	1241.70166	
1001	10.000	-348.45419	1553.11597	1138.37659	-496.38760	1214.10681	841.07556							-468.04028	1523.38867	919.50513	-116.36235	1489.99207	1116.47375	-238.14479	1342.86377	962.36200	-263.85388	1779.11121	973.39282				-39.46206	1210.32678	1127.09143	-323.40466	1047.11572	797.15625	-17.53003	1177.26245	895.61145	-334.42255	948.86066	874.00696	-114.55717	975.31097	1061.34583	-413.71124	996.02075	1159.52747	-348.45901	531.60608	849.28064	-82.49782	528.73010	1108.33191	-390.30618	112.43436	930.92603	-89.85635	136.79895	1242.52161	
1002	10.010	-342.56107	1553.27039	1143.04919	-496.12567	1215.18445	845.87964							-467.86026	1523.39111	927.08246	-111.44816	1489.33008	1115.37256	-236.92569	1342.38281	965.46637	-260.27112	1778.15491	974.29211				-34.23246	1210.01892	1123.34644	-319.51547	1054.20593	799.88666	-18.55506	1178.25696	891.36542	-335.81177	949.40277	877.49817	-110.62777	974.90546	1060.34326	-408.44931	996.38373	1165.65100	-348.95395	531.82654	853.56268	-84.15993	524.18414	1111.14746	-390.15372	112.67753	931.06812	-90.88108	135.44843	1241.80261	
1003	10.020	-336.78668	1553.34204	1147.71875	-160.49908	1517.32642	825.48083							-466.12299	1523.15222	934.38477	-106.47617	1488.50867	1114.31921	-235.38574	1341.67517	968.37042	-257.19592	1777.51245	975.18213				-29.00630	1209.46606	1119.90955	-316.94492	1062.41479	801.81030	-18.92829	1179.45410	887.74622	-338.00696	948.50928	881.32202	-107.42394	974.22943	1059.43091	-402.35114	995.93408	1171.91821	-348.54752	531.43726	858.71320	-85.13551	521.80109	1114.50037	-389.67331	112.73917	932.09827	-93.53951	134.60037	1239.46924	
1004	10.030	-331.26270	1553.63037	1152.39917	-159.74213	1514.94678	827.50458							-466.42307	1524.01978	942.14545	-101.67396	1489.25488	1115.29028	-234.29466	1341.28906	971.23669	-254.28934	1777.15967	975.94153				-24.02402	1209.42505	1116.70593	-313.40799	1069.95898	804.55585	-20.39261	1180.97559	883.29834	-338.66602	949.28119	885.09412	-103.54543	973.34979	1058.97437	-396.42743	996.62915	1178.30225	-349.01535	531.17957	863.13678	-84.98496	521.25586	1117.96570	-389.15411	113.08167	931.96472	-94.79795	134.67653	1239.63123	
1005	10.040	-325.70770	1554.24548	1156.78223	-494.56979	1220.95227	860.72205							-463.96570	1524.31238	949.26483	-97.09164	1488.49829	1112.72913	-232.90210	1341.77393	974.54010	-250.95219	1776.73828	976.59222				-19.04661	1209.41016	1113.06702	-310.10822	1078.09277	806.34644	-21.92314	1182.58557	879.01514	-340.53323	949.56708	888.37164	-100.53664	973.37793	1057.95862	-391.10522	997.10736	1184.91663	-349.40530	531.55676	866.99255	-83.18800	521.61328	1121.90845	-388.85196	113.49966	932.12054	-96.54270	133.96895	1239.53162	
1006	10.050	-319.95523	1554.63550	1161.11511	-495.77069	1223.95801	867.26776							-158.24738	1509.66150	833.94275	-93.21333	1487.44714	1112.33081	-231.84125	1341.80933	977.51721	-246.66232	1776.07727	977.29492				-14.84091	1209.89905	1108.66943	-307.85394	1086.31982	809.16095	-23.62521	1183.97961	874.72821	-341.61023	950.38538	892.87622	-96.39258	973.31708	1058.02612	-384.87225	997.70343	1191.13123	-348.95111	531.64716	871.72620	-82.26057	522.15015	1125.64453	-388.29153	114.40108	932.64325	-96.88913	133.80974	1239.29028	
1007	10.060	-314.45898	1555.10767	1165.48242	-157.67216	1507.42578	836.53406							-461.40317	1526.34900	963.83612	-87.92265	1489.10144	1112.59802	-230.96748	1341.32593	980.63745	-243.50345	1775.48694	978.23792	-494.88614	1226.43726	872.66400	-11.20356	1210.08972	1104.74011	-304.90775	1095.14014	810.54132	-25.32592	1186.31201	871.21143	-343.42126	951.14459	895.79199	-93.62061	973.44482	1057.05078	-379.23187	998.40460	1197.70862	-348.31403	532.27576	875.37506	-80.45318	522.94360	1129.24683	-387.77676	115.17297	933.14545	-96.74411	132.93790	1239.50977	
1008	10.070	-308.91998	1555.67944	1169.66638	-157.24744	1504.85461	840.25385							-459.21674	1527.93188	970.80634	-83.59894	1488.30383	1110.21692	-229.95921	1341.71448	982.80487	-241.04471	1775.48792	979.56445	-494.58313	1229.06433	878.32184	-7.26282	1210.81238	1101.41296	-302.62018	1102.95300	813.59656	-27.31976	1188.04333	867.51166	-344.74307	951.75171	900.39838	-90.47491	973.35071	1057.67798	-373.75470	999.08783	1204.20972	-348.61722	532.08948	881.28564	-78.38654	523.89905	1132.71863	-387.59363	116.26628	933.24078	-96.43495	132.39951	1239.95227	
1009	10.080	-303.45862	1556.28247	1173.69946	-457.46338	1528.42407	977.76190							-156.72923	1503.46436	841.90692	-79.73444	1488.19238	1109.43909	-228.90115	1341.63342	985.79932	-237.76666	1775.21924	980.81683	-494.07501	1231.17664	884.16003	-3.73019	1211.62891	1097.17737	-299.27438	1110.22485	816.19696	-29.69754	1190.28137	864.61145	-345.79617	952.08032	904.67407	-87.78500	973.91803	1057.58984	-368.37399	1000.12701	1210.62451	-347.75897	532.91711	885.98517	-76.87379	524.83087	1136.03442	-387.01254	116.79132	934.69373	-95.33974	131.94879	1240.62573	
1010	10.090	-297.95065	1557.03955	1177.68457	-156.26698	1501.19348	846.08142							-456.50656	1529.41406	985.24133	-75.49337	1489.12354	1110.61182	-228.13387	1341.73975	988.78851	-234.15469	1774.76526	982.13177	-492.23758	1232.72339	889.55316	-0.77644	1211.96838	1092.91235	-297.67703	1118.15552	819.03955	-32.31812	1191.85010	861.78394	-346.79910	952.49774	909.50043	-84.23290	974.20258	1057.33618	-362.53842	1000.88757	1216.98120	-347.18008	533.29419	891.26300	-75.00306	524.48212	1138.72424	-387.09235	117.94083	934.85901	-93.67879	131.32808	1241.36487	
1011	10.100	-292.21902	1557.91199	1181.25977	-156.15831	1500.07971	847.02783							-89.68105	1587.41064	944.58081	-72.36798	1488.95630	1108.64343	-226.33435	1342.90833	991.53711	-231.59735	1774.93604	983.63989	-492.22928	1235.38269	895.05035	2.35389	1212.47144	1090.16541	-295.12592	1125.92908	820.90564	-35.17412	1194.28735	858.78223	-348.79703	953.31061	913.71277	-82.06004	974.72882	1057.04834	-357.20758	1001.73358	1223.43250	-347.68225	533.67169	896.35608	-73.01866	524.07367	1141.88062	-387.43890	119.39324	935.77344	-92.63622	130.37537	1241.75647	
1012	10.110	-287.06592	1558.95801	1184.92773	-452.40250	1531.27368	998.75043							-155.86295	1499.06628	850.07898	-69.01736	1488.78589	1106.52844	-225.67197	1342.89514	993.70410	-228.52124	1774.73792	985.36273	-491.76495	1237.41699	900.95734	5.25374	1213.70349	1086.88757	-293.02271	1133.01050	823.55164	-37.55885	1196.34692	855.95294	-350.61276	954.06232	917.90118	-79.28806	974.98505	1057.23877	-351.33038	1002.81116	1229.34387	-347.93985	533.70264	902.15723	-70.93391	524.13629	1144.89734	-387.30911	120.46574	936.93195	-91.11784	129.98302	1242.33911	
1013	10.120	-281.83881	1559.62500	1188.43262	-85.63721	1586.29700	947.54614							-449.81384	1532.26831	1005.22858	-65.08314	1489.70105	1106.83704	-224.65775	1343.08643	996.64307	-225.29037	1774.44495	987.22833	-155.74545	1498.50146	852.14899	7.57486	1214.01648	1082.83240	-290.50851	1139.31006	826.36987	-40.64058	1198.76636	853.61359	-351.91052	955.01837	922.37164	-76.47107	975.28259	1057.40161	-346.05054	1004.05200	1235.33606	-348.87665	534.64355	907.61389	-70.91237	523.09583	1147.45056	-387.43979	121.29797	938.30359	-90.42017	129.09813	1243.25854	
1014	10.130	-276.56079	1560.26233	1191.89441	-84.74467	1585.47949	948.47815							-447.88315	1533.43347	1011.82727	-61.36350	1489.92993	1105.46277	-223.26263	1343.64795	999.38263	-222.86636	1774.32141	989.40704	-155.68947	1497.74377	854.96094	9.49656	1214.54504	1079.80945	-289.20825	1145.44751	829.31775	-43.95026	1200.66956	851.32422	-353.28073	956.37061	927.58527	-74.03603	976.02191	1057.21619	-340.20840	1004.87006	1240.96313	-349.74826	534.63861	913.17163	-67.24088	524.72571	1150.95972	-387.38928	122.68909	941.03058	-90.31004	128.86966	1243.46069	
1015	10.140	-271.38354	1560.82275	1195.31250	-446.27930	1534.43640	1018.37036							-156.04802	1496.89246	856.20135	-58.33989	1491.04956	1105.13574	-222.26421	1344.16479	1002.29382	-219.95294	1774.10803	991.53247	-486.88300	1242.77002	917.89941	10.99844	1215.44031	1076.26807	-286.79132	1151.01575	832.17596	-46.63910	1202.47485	849.26434	-355.11441	956.96027	933.26044	-71.11353	976.58453	1056.59839	-335.29376	1006.01318	1246.64185	-350.58478	534.21552	919.48340	-65.44894	525.59418	1154.34448	-388.26096	123.67310	943.96356	-90.66968	128.54633	1244.01294	
1016	10.150	-266.30496	1561.28198	1198.53674	-483.32147	1243.89758	922.94812							-81.61200	1583.82605	950.96533	-55.74486	1491.54968	1104.06262	-221.19550	1344.30493	1005.07648	-217.36987	1774.13770	993.68335	-156.55675	1496.13440	857.64386	12.40446	1215.94714	1072.96753	-285.05731	1156.52283	835.19299	-49.48009	1204.52612	847.43414	-356.40387	956.84753	937.61267	-68.71850	977.11615	1055.70630	-330.81122	1007.39935	1251.95959	-352.38080	534.09967	926.07648	-64.61327	525.98999	1157.47327	-390.33212	125.00011	947.26074	-90.35529	128.33594	1244.56873	
1017	10.160	-261.78351	1561.81299	1201.84814	-80.42379	1582.73633	951.66949							-442.68906	1536.62512	1030.91626	-52.83186	1491.28296	1102.28101	-219.94344	1345.05579	1007.84442	-214.87335	1774.00623	995.84357	-156.97012	1495.88330	859.98749	13.89093	1216.46021	1070.22192	-283.70227	1161.27380	838.52057	-54.70367	1206.30359	845.80975	-358.36737	958.21155	942.39948	-66.98096	977.52612	1055.10632	-325.91580	1008.17297	1256.86975	-354.98181	534.05206	933.01813	-64.24126	525.36450	1161.18579	-391.93140	125.71570	953.16162	-90.41663	128.19206	1244.77014	
